<svg width="24" height="23" viewBox="0 0 24 23" fill="none" xmlns="http://www.w3.org/2000/svg">
<g style="mix-blend-mode:luminosity">
<path d="M9.3837 3.80002C9.96344 4.03151 10.5968 4.00866 11.1628 3.73583C12.1341 3.28007 11.3103 2.29261 11.3057 2.29689C11.3011 2.30117 10.3503 2.40387 10.3503 2.40387L9.3837 3.80002Z" fill="#D58C00"/>
<path opacity="0.04" d="M9.3837 3.80002C9.96344 4.03151 10.5968 4.00866 11.1628 3.73583C12.1341 3.28007 11.3103 2.29261 11.3057 2.29689C11.3011 2.30117 10.3503 2.40387 10.3503 2.40387L9.3837 3.80002Z" fill="#825600"/>
<path opacity="0.39" d="M13.5635 22.2698C19.3274 22.2698 24 21.3975 24 20.3216C24 19.2456 19.3274 18.3734 13.5635 18.3734C7.79955 18.3734 3.12697 19.2456 3.12697 20.3216C3.12697 21.3975 7.79955 22.2698 13.5635 22.2698Z" fill="#825600"/>
<path d="M7.82343 12.086H19.618V20.3227H7.82343V12.086Z" fill="#827B6F"/>
<path d="M6.93944 10.7764H20.5493V12.0849H6.93944V10.7764Z" fill="#827B6F"/>
<path d="M6.93944 10.7765L8.84196 6.60944H18.8842L20.5502 10.7765H6.93944Z" fill="#827B6F"/>
<path opacity="0.04" d="M6.93944 10.7765L8.84196 6.60944H18.8842L20.5502 10.7765H6.93944Z" fill="#825600"/>
<path opacity="0.04" d="M7.82343 12.086H19.618V12.9739H7.82343V12.086Z" fill="#825600"/>
<path d="M10.9903 15.3319L11.4105 16.8532H11.4263L11.8465 15.3319H12.2537L11.6554 17.3314H11.1823L10.5831 15.3297L10.9903 15.3319Z" fill="#523F19"/>
<path d="M13.9595 16.3332C13.9646 16.5264 13.9279 16.7179 13.8529 16.8906C13.7868 17.0373 13.6853 17.1588 13.5607 17.2405C13.4333 17.3198 13.2908 17.3613 13.146 17.3613C13.0013 17.3613 12.8588 17.3198 12.7314 17.2405C12.6077 17.1577 12.507 17.0359 12.441 16.8896C12.3707 16.7151 12.3343 16.5251 12.3343 16.3327C12.3343 16.1403 12.3707 15.9503 12.441 15.7759C12.507 15.6295 12.6077 15.5077 12.7314 15.4249C12.8588 15.3456 13.0013 15.3041 13.146 15.3041C13.2908 15.3041 13.4333 15.3456 13.5607 15.4249C13.6851 15.5073 13.7865 15.6291 13.8529 15.7759C13.928 15.9485 13.9647 16.1401 13.9595 16.3332ZM13.5885 16.3332C13.5918 16.2107 13.5732 16.0887 13.5338 15.9748C13.5026 15.8853 13.449 15.8086 13.3798 15.7545C13.3101 15.7048 13.2298 15.6786 13.1479 15.6786C13.066 15.6786 12.9857 15.7048 12.916 15.7545C12.8467 15.8086 12.7931 15.8853 12.762 15.9748C12.689 16.206 12.689 16.4594 12.762 16.6906C12.7928 16.7806 12.8465 16.8577 12.916 16.912C12.9859 16.9611 13.0661 16.987 13.1479 16.987C13.2297 16.987 13.3099 16.9611 13.3798 16.912C13.4492 16.8577 13.5029 16.7806 13.5338 16.6906C13.5728 16.577 13.5912 16.4554 13.5876 16.3332H13.5885Z" fill="#523F19"/>
<path d="M14.0876 15.6806V15.3319H15.5133V15.6806H14.9818V17.3314H14.6191V15.6806H14.0876Z" fill="#523F19"/>
<path d="M15.748 17.3314V15.3319H16.9177V15.6806H16.1191V16.1546H16.8611V16.5033H16.1191V16.9816H16.9252V17.3314H15.748Z" fill="#523F19"/>
<path d="M0 2.78903L7.48394 1.29553L7.96444 5.05496L0 8.30621V2.78903Z" fill="#523F19"/>
<path d="M17.4548 8.72557H10.0896L10.2491 8.07083H17.3073L17.4548 8.72557Z" fill="#523F19"/>
<path d="M7.53033 1.6571L8.33735 1.44099L8.74736 4.47721L7.91807 4.6901L7.53033 1.6571Z" fill="#68E1FD"/>
<path d="M16.247 8.72556H11.5264L10.1805 2.35679L14.6358 1.104L16.247 8.72556Z" fill="#68E1FD"/>
<path d="M8.33823 1.44957L8.66196 3.84281C8.66196 3.84281 10.3075 3.93054 10.853 3.00084C11.3984 2.07115 11.468 1.86146 12.2741 2.60928C13.0802 3.3571 14.1209 3.25119 14.3343 2.60928C14.5476 1.96738 13.4067 0.269535 12.3446 0.0245415C11.2825 -0.220452 8.33823 1.44957 8.33823 1.44957Z" fill="#D58C00"/>
<path d="M11.1231 3.98256L12.0492 3.72041L12.2765 4.7885L11.3504 5.05066L11.1231 3.98256Z" fill="#523F19"/>
<path opacity="0.3" d="M12.5092 3.8698L14.5055 3.30469L14.6169 3.82835L12.6206 4.39345L12.5092 3.8698Z" fill="#D58C00"/>
<path d="M11.5175 5.69385L12.4436 5.4317L12.6708 6.49979L11.7448 6.76194L11.5175 5.69385Z" fill="#523F19"/>
<path opacity="0.3" d="M12.9044 5.58191L14.9008 5.0168L15.0122 5.54046L13.0159 6.10557L12.9044 5.58191Z" fill="#D58C00"/>
<path d="M11.9095 6.13868L12.1535 6.34409L12.2806 5.80061" stroke="#ECB334" stroke-width="0.289537" stroke-linecap="round" stroke-linejoin="round"/>
<path d="M11.9197 7.405L12.8458 7.14285L13.0731 8.21094L12.147 8.4731L11.9197 7.405Z" fill="#523F19"/>
<path opacity="0.3" d="M13.306 7.29329L15.3023 6.72818L15.4138 7.25184L13.4174 7.81695L13.306 7.29329Z" fill="#D58C00"/>
<path opacity="0.04" d="M11.4569 8.39821L16.0699 7.88683L16.247 8.72558H11.5264L11.4569 8.39821Z" fill="#825600"/>
<path d="M6.83739 2.80292C6.99416 2.80292 7.12124 2.65635 7.12124 2.47555C7.12124 2.29475 6.99416 2.14818 6.83739 2.14818C6.68063 2.14818 6.55354 2.29475 6.55354 2.47555C6.55354 2.65635 6.68063 2.80292 6.83739 2.80292Z" fill="#D58C00"/>
</g>
</svg>
